<svg xmlns="http://www.w3.org/2000/svg"  viewBox="0 0 64 64" width="128px" height="128px"><path fill="#7bbeeb" d="M57,13.73v22.38C56.34,36.04,55.68,36,55,36c-10.49,0-19,8.51-19,19c0,0.68,0.04,1.34,0.11,2H13.73 C10.02,57,7,53.98,7,50.27v-8.53C8.31,41.91,9.65,42,11,42c17.12,0,31-13.88,31-31c0-1.35-0.09-2.69-0.26-4h8.53 C53.98,7,57,10.02,57,13.73z"/><path fill="#a2a2ea" d="M57,36.11v14.16c0,3.71-3.02,6.73-6.73,6.73H36.11C36.04,56.34,36,55.68,36,55 c0-10.49,8.51-19,19-19C55.68,36,56.34,36.04,57,36.11z"/><path fill="#ace3ff" d="M42,11c0,17.12-13.88,31-31,31c-1.35,0-2.69-0.09-4-0.26V29.57C8.29,29.85,9.63,30,11,30 c10.49,0,19-8.51,19-19c0-1.37-0.15-2.71-0.43-4h12.17C41.91,8.31,42,9.65,42,11z"/><path fill="#b0edcc" d="M30,11c0,10.49-8.51,19-19,19c-1.37,0-2.71-0.15-4-0.43V13.73C7,10.02,10.02,7,13.73,7h15.84 C29.85,8.29,30,9.63,30,11z"/><path fill="#8d6c9f" d="M51,58H13c-3.859,0-7-3.141-7-7V13c0-3.859,3.141-7,7-7h38c3.859,0,7,3.141,7,7v38 C58,54.859,54.859,58,51,58z M13,8c-2.757,0-5,2.243-5,5v38c0,2.757,2.243,5,5,5h38c2.757,0,5-2.243,5-5V13c0-2.757-2.243-5-5-5H13 z"/><path fill="#8d6c9f" d="M17,52c0.552,0,1-0.448,1-1v-2c0-0.552-0.448-1-1-1s-1,0.448-1,1v2C16,51.552,16.448,52,17,52z M12,48c-0.552,0-1,0.448-1,1v2c0,0.552,0.448,1,1,1s1-0.448,1-1v-2C13,48.448,12.552,48,12,48z M32,52c0.552,0,1-0.448,1-1v-2 c0-0.552-0.448-1-1-1s-1,0.448-1,1v2C31,51.552,31.448,52,32,52z M37,52c0.552,0,1-0.448,1-1v-2c0-0.552-0.448-1-1-1s-1,0.448-1,1 v2C36,51.552,36.448,52,37,52z M42,52c0.552,0,1-0.448,1-1v-2c0-0.552-0.448-1-1-1s-1,0.448-1,1v2C41,51.552,41.448,52,42,52z M47,52c0.552,0,1-0.448,1-1v-2c0-0.552-0.448-1-1-1s-1,0.448-1,1v2C46,51.552,46.448,52,47,52z M52,48c-0.552,0-1,0.448-1,1v2 c0,0.552,0.448,1,1,1s1-0.448,1-1v-2C53,48.448,52.552,48,52,48z M22,52c0.552,0,1-0.448,1-1v-2c0-0.552-0.448-1-1-1s-1,0.448-1,1 v2C21,51.552,21.448,52,22,52z M27,52c0.552,0,1-0.448,1-1v-2c0-0.552-0.448-1-1-1s-1,0.448-1,1v2C26,51.552,26.448,52,27,52z"/><path fill="#fff" d="M30.876,44C28.368,44,19,41.745,19,30.711c0-11.185,7.71-18.417,14.853-18.704l0,0 c2.773-0.111,5.292,1.106,6.583,3.176c1.12,1.795,1.148,3.791,0.002,5.753c-1.057,1.81-2.16,2.053-2.714,2.04 c-0.638-0.016-1.198-0.375-1.498-0.959c-0.395-0.769-0.267-1.763,0.334-2.594c0.437-0.604,0.321-1.554-0.213-2.422 C36.04,16.502,35.309,15.84,34,16c-5.706,0.696-8.674,11.157-8.674,14.703c0,3.792,2.926,8.372,6.559,8.372 c3.478,0,6.924-1.974,8.994-5.151c1.103-1.695,2.489-1.967,3.311-1.503c0.743,0.421,1.254,1.573,0.25,3.436 C39.728,43.908,31.235,44,30.876,44z"/><path fill="#8d6c9f" d="M30.876,45C28.156,45,18,42.575,18,30.711c0-11.778,8.208-19.398,15.813-19.703 c3.12-0.13,5.99,1.272,7.472,3.646c1.326,2.125,1.332,4.535,0.017,6.787c-1.312,2.247-2.822,2.534-3.6,2.537 c-1.013-0.026-1.896-0.588-2.365-1.502c-0.567-1.105-0.409-2.499,0.413-3.637c0.145-0.201,0.105-0.729-0.254-1.312 c-0.149-0.244-0.527-0.638-1.374-0.533c-5.031,0.613-7.795,10.534-7.795,13.71c0,3.319,2.565,7.373,5.559,7.373 c3.144,0,6.269-1.8,8.156-4.698c1.453-2.234,3.423-2.515,4.64-1.828c1.228,0.695,1.9,2.443,0.639,4.782 C40.305,44.902,31.259,45,30.876,45z M34.202,13c-0.103,0-0.206,0.002-0.309,0.006C27.211,13.274,20,20.12,20,30.711 C20,40.915,28.579,43,30.876,43c0.336,0,8.275-0.087,12.701-7.648c0.602-1.118,0.498-1.848,0.121-2.062 c-0.342-0.193-1.185-0.044-1.979,1.178c-2.253,3.458-6.02,5.606-9.833,5.606c-4.257,0-7.559-5.038-7.559-9.373 c0-3.384,2.978-14.894,9.553-15.695c2.088-0.26,3.069,1.062,3.321,1.472c0.771,1.255,0.837,2.608,0.171,3.531 c-0.379,0.524-0.477,1.119-0.255,1.552c0.132,0.257,0.363,0.409,0.634,0.416c0.281-0.004,1-0.133,1.825-1.545 c0.949-1.625,0.954-3.213,0.014-4.72C38.534,14.022,36.489,13,34.202,13z"/></svg>